<svg width="699" height="509" viewBox="0 0 699 509" fill="none" xmlns="http://www.w3.org/2000/svg">
<g opacity="0.1">
<path d="M469.346 82.4097C469.346 82.4097 470.24 85.9479 467.275 89.8983C467.275 89.8983 472.119 89.7621 474.448 92.6895C474.448 92.6895 473.672 88.4346 476.999 85.2008C476.999 85.2008 472.452 85.9498 469.346 82.4097Z" fill="white"/>
</g>
<path d="M223.943 137.017C223.943 137.017 225.213 142.045 221 147.66C221 147.66 227.884 147.466 231.194 151.627C231.194 151.627 230.091 145.58 234.82 140.984C234.82 140.984 228.356 142.048 223.943 137.017Z" fill="white"/>
<path d="M454.836 136.606C454.836 136.606 455.73 140.145 452.766 144.095C452.766 144.095 457.609 143.959 459.938 146.887C459.938 146.887 459.162 142.632 462.49 139.398C462.49 139.398 457.942 140.147 454.836 136.606Z" fill="white"/>
<g opacity="0.300003">
<g opacity="0.300003">
<path opacity="0.300003" d="M462.292 208.945C462.292 212.621 411.837 215.602 349.598 215.602C287.359 215.602 236.904 212.621 236.904 208.945C236.904 205.269 287.359 202.289 349.598 202.289C411.837 202.289 462.292 205.269 462.292 208.945Z" fill="#000072"/>
</g>
</g>
<path d="M444.451 200.624C439.978 205.398 433.417 208.084 426.566 208.084H272.614C265.763 208.084 259.202 205.398 254.73 200.624C252.259 197.985 250.432 195.045 249.204 192.038C249.199 192.038 249.199 192.038 249.199 192.033C245.334 182.595 247.304 172.467 253.469 168.824C263.821 162.698 271.804 170.183 271.804 170.183C272.688 168.273 273.884 166.617 275.223 165.198C280.266 159.835 287.333 157.793 287.333 157.793C283.491 137.506 292.067 119.125 292.067 119.125C292.067 119.125 313.2 133.829 349.59 133.829C385.98 133.829 407.113 119.125 407.113 119.125C407.113 119.125 415.689 137.506 411.847 157.793C411.847 157.793 423.161 161.063 427.376 170.183C427.376 170.183 435.359 162.698 445.711 168.824C453.841 173.632 454.674 189.716 444.451 200.624Z" fill="#B11313"/>
<g opacity="0.300003">
<g opacity="0.300003">
<path opacity="0.300003" d="M277.943 188.885C279.369 176.172 271.805 170.686 271.805 170.686C272.688 168.776 273.884 167.119 275.223 165.7C286.956 178.621 277.943 188.885 277.943 188.885Z" fill="#000072"/>
</g>
</g>
<g opacity="0.300003">
<g opacity="0.300003">
<path opacity="0.300003" d="M421.288 188.885C419.862 176.172 427.426 170.686 427.426 170.686C426.542 168.776 425.346 167.119 424.007 165.7C412.274 178.621 421.288 188.885 421.288 188.885Z" fill="#000072"/>
</g>
</g>
<g opacity="0.300003">
<g opacity="0.300003">
<path opacity="0.300003" d="M422.47 199.551C421.374 199.3 420.244 199.214 419.121 199.327C417.521 199.489 414.768 199.74 410.73 200.018C404.653 200.438 399.346 196.233 398.931 190.636C398.753 188.231 399.144 186.364 399.285 185.786C397.698 192.032 394.768 197.786 392.981 200.942C383.911 201.29 372.423 201.573 358.216 201.656C357.45 176.384 373.396 152.686 373.396 152.686C348.963 170.681 325.808 152.686 325.808 152.686C341.93 179.033 341.091 200.559 341.091 200.559L343.806 201.67C328.292 201.61 315.885 201.313 306.223 200.942C304.436 197.786 301.506 192.032 299.919 185.786C300.066 186.387 300.483 188.383 300.249 190.928C299.744 196.406 294.432 200.43 288.478 200.019C284.438 199.74 281.684 199.489 280.083 199.327C278.96 199.214 277.83 199.3 276.734 199.551C259.217 203.567 249.51 192.889 249.197 192.535C250.426 195.543 252.252 198.483 254.723 201.122C259.195 205.896 265.757 208.582 272.608 208.582H349.602H426.596C433.448 208.582 440.009 205.896 444.481 201.122C446.952 198.483 448.778 195.543 450.007 192.535C449.694 192.889 439.987 203.567 422.47 199.551Z" fill="#000072"/>
</g>
</g>
<g opacity="0.300003">
<g opacity="0.300003">
<path opacity="0.300003" d="M299.928 185.795C299.898 185.673 299.879 185.606 299.879 185.606C299.895 185.669 299.912 185.732 299.928 185.795Z" fill="#000072"/>
</g>
</g>
<g opacity="0.300003">
<g opacity="0.300003">
<path opacity="0.300003" d="M399.283 185.795C399.299 185.732 399.317 185.669 399.333 185.606C399.333 185.606 399.313 185.673 399.283 185.795Z" fill="#000072"/>
</g>
</g>
<path d="M349.574 207.118H426.569C433.028 207.118 439.107 204.584 443.247 200.168C448.595 194.461 451.233 186.559 450.13 179.545C449.484 175.439 447.561 172.164 444.853 170.561C435.698 165.142 428.804 171.446 428.515 171.717C428.143 172.067 427.605 172.223 427.081 172.131C426.557 172.04 426.118 171.714 425.91 171.263C422.028 162.86 411.477 159.729 411.371 159.698C410.608 159.478 410.14 158.77 410.277 158.045C413.333 141.923 408.286 126.839 406.353 121.897C400.568 125.379 380.658 135.801 349.593 135.801C318.528 135.801 298.618 125.379 292.832 121.897C290.9 126.839 285.853 141.923 288.908 158.045C289.046 158.77 288.578 159.478 287.814 159.698C287.71 159.729 277.143 162.894 273.276 171.263C273.067 171.714 272.628 172.04 272.105 172.131C271.582 172.223 271.043 172.067 270.67 171.717C270.382 171.451 263.43 165.177 254.332 170.561C251.625 172.164 249.701 175.439 249.056 179.545C247.953 186.559 250.59 194.462 255.939 200.168C260.079 204.584 266.158 207.118 272.616 207.118H349.574ZM426.569 210.055H272.616C265.229 210.055 258.27 207.15 253.524 202.086C247.589 195.755 244.668 186.956 245.899 179.125C246.688 174.103 249.07 170.184 252.607 168.091C261.025 163.109 268.127 166.363 271.248 168.389C275.207 161.715 282.552 158.442 285.549 157.337C282.211 137.351 290.253 119.799 290.604 119.047C290.798 118.632 291.187 118.323 291.661 118.207C292.136 118.092 292.64 118.183 293.031 118.455C293.238 118.598 314.224 132.864 349.593 132.864C384.962 132.864 405.948 118.598 406.156 118.454C406.547 118.183 407.053 118.092 407.525 118.208C407.999 118.324 408.389 118.633 408.582 119.047C408.933 119.799 416.974 137.351 413.636 157.337C416.634 158.442 423.979 161.715 427.938 168.389C431.058 166.363 438.16 163.108 446.578 168.091C450.115 170.184 452.498 174.102 453.287 179.125C454.518 186.956 451.597 195.755 445.662 202.086C440.915 207.15 433.956 210.055 426.569 210.055Z" fill="#000072"/>
<path d="M272.737 169.491C272.912 169.601 272.993 169.662 273.114 169.744C273.228 169.822 273.32 169.896 273.425 169.973C273.632 170.127 273.807 170.29 273.995 170.45C274.187 170.607 274.345 170.781 274.518 170.949C274.691 171.116 274.854 171.289 275.007 171.466C275.643 172.168 276.177 172.924 276.654 173.704C277.609 175.266 278.243 176.949 278.684 178.643C279.114 180.345 279.273 182.073 279.273 183.779C279.277 184.631 279.173 185.481 279.11 186.322C278.973 187.161 278.823 187.993 278.632 188.814C278.595 188.97 278.428 189.07 278.258 189.037C278.129 189.011 278.035 188.916 278.014 188.803L278.01 188.783C277.854 187.958 277.756 187.146 277.639 186.341L277.41 185.142C277.327 184.746 277.295 184.346 277.181 183.957C276.967 183.179 276.852 182.392 276.581 181.64C276.464 181.262 276.371 180.878 276.243 180.506L275.832 179.401C275.264 177.942 274.571 176.548 273.736 175.258C273.518 174.942 273.315 174.615 273.079 174.316L272.737 173.857L272.371 173.42C272.138 173.119 271.869 172.855 271.617 172.583C271.487 172.454 271.358 172.315 271.226 172.2C271.163 172.141 271.096 172.071 271.037 172.02C270.984 171.972 270.897 171.898 270.891 171.887L270.546 171.25C270.177 170.567 270.479 169.737 271.221 169.396C271.724 169.166 272.302 169.22 272.737 169.491Z" fill="#000072"/>
<path d="M428.268 171.887C428.262 171.898 428.175 171.973 428.121 172.02C428.062 172.071 427.995 172.141 427.932 172.2C427.8 172.315 427.671 172.455 427.541 172.584C427.289 172.855 427.02 173.12 426.788 173.421L426.421 173.857L426.08 174.316C425.843 174.616 425.64 174.943 425.422 175.259C424.587 176.548 423.894 177.943 423.327 179.401L422.915 180.506C422.787 180.878 422.695 181.262 422.577 181.64C422.306 182.392 422.192 183.179 421.977 183.957C421.863 184.346 421.832 184.746 421.748 185.142L421.519 186.341C421.402 187.146 421.305 187.959 421.148 188.783L421.145 188.803C421.115 188.961 420.952 189.066 420.78 189.039C420.65 189.018 420.553 188.926 420.526 188.814C420.336 187.993 420.185 187.161 420.048 186.322C419.985 185.481 419.882 184.632 419.885 183.779C419.885 182.073 420.044 180.345 420.474 178.644C420.915 176.949 421.55 175.266 422.504 173.705C422.981 172.924 423.515 172.169 424.151 171.467C424.304 171.289 424.467 171.117 424.641 170.949C424.813 170.782 424.971 170.608 425.163 170.45C425.351 170.29 425.526 170.128 425.734 169.974C425.838 169.897 425.93 169.822 426.044 169.744C426.165 169.662 426.247 169.601 426.422 169.492C427.107 169.062 428.041 169.225 428.508 169.856C428.825 170.283 428.846 170.816 428.613 171.249L428.268 171.887Z" fill="#000072"/>
<path d="M288.922 158.123L289.052 159.297L289.214 160.609C289.271 161.056 289.347 161.505 289.389 161.976C289.436 162.446 289.464 162.932 289.438 163.458L289.438 163.46C289.434 163.543 289.358 163.607 289.268 163.603C289.236 163.602 289.206 163.592 289.182 163.576C288.713 163.272 288.31 162.924 287.961 162.544C287.604 162.167 287.311 161.755 287.026 161.333C286.747 160.909 286.493 160.467 286.272 160.005C286.168 159.771 286.06 159.537 285.977 159.289C285.932 159.167 285.891 159.041 285.854 158.912C285.815 158.772 285.789 158.67 285.754 158.472C285.616 157.67 286.21 156.917 287.08 156.79C287.951 156.662 288.769 157.209 288.907 158.011C288.911 158.036 288.915 158.062 288.918 158.087L288.922 158.123Z" fill="#000072"/>
<path d="M413.467 158.472C413.433 158.67 413.407 158.772 413.367 158.912C413.331 159.041 413.29 159.167 413.245 159.29C413.161 159.537 413.053 159.771 412.949 160.005C412.728 160.467 412.474 160.909 412.196 161.333C411.91 161.755 411.618 162.167 411.261 162.544C410.912 162.924 410.508 163.272 410.04 163.576C409.966 163.624 409.865 163.608 409.813 163.54C409.794 163.516 409.785 163.488 409.783 163.46L409.783 163.458C409.757 162.932 409.785 162.446 409.832 161.976C409.874 161.505 409.95 161.056 410.007 160.609L410.17 159.297L410.3 158.123L410.303 158.092C410.393 157.285 411.176 156.697 412.053 156.779C412.93 156.862 413.568 157.583 413.479 158.39C413.476 158.416 413.471 158.446 413.467 158.472Z" fill="#000072"/>
<path d="M296.659 172.678C296.659 172.678 289.358 167.464 287.336 158.296C287.336 158.296 283.136 156.341 280.232 161.63C280.232 161.63 283.582 177.777 299.878 185.602C299.878 185.602 297.524 177.289 296.659 172.678Z" fill="#0096F2"/>
<path d="M281.921 161.841C282.579 164.307 286.121 175.565 297.393 182.536C296.68 179.872 295.735 176.19 295.193 173.464C293.502 172.115 287.998 167.234 285.976 159.43C285.058 159.284 283.405 159.454 281.921 161.841ZM299.88 187.07C299.628 187.07 299.375 187.015 299.142 186.904C282.354 178.843 278.81 162.594 278.667 161.907C278.601 161.588 278.651 161.258 278.81 160.969C280.624 157.665 282.995 156.729 284.665 156.525C286.513 156.298 287.905 156.915 288.057 156.986C288.493 157.189 288.804 157.564 288.901 158.005C290.773 166.495 297.572 171.47 297.641 171.519C297.953 171.744 298.165 172.069 298.233 172.429C299.075 176.926 301.4 185.149 301.423 185.231C301.582 185.793 301.367 186.389 300.874 186.751C300.585 186.962 300.234 187.07 299.88 187.07Z" fill="#000072"/>
<path d="M402.565 172.678C402.565 172.678 409.866 167.464 411.888 158.296C411.888 158.296 416.088 156.341 418.992 161.63C418.992 161.63 415.643 177.777 399.346 185.602C399.346 185.602 401.701 177.289 402.565 172.678Z" fill="#0096F2"/>
<path d="M404.032 173.464C403.49 176.19 402.545 179.872 401.831 182.537C413.103 175.566 416.645 164.309 417.304 161.841C416.405 160.391 415.343 159.583 414.141 159.437C413.803 159.395 413.495 159.413 413.244 159.449C411.218 167.242 405.722 172.116 404.032 173.464ZM399.345 187.07C398.991 187.07 398.64 186.962 398.351 186.75C397.858 186.389 397.643 185.793 397.802 185.231C397.825 185.149 400.15 176.926 400.992 172.429C401.06 172.068 401.271 171.744 401.584 171.52C401.653 171.47 408.452 166.495 410.324 158.005C410.421 157.564 410.732 157.189 411.168 156.986C411.32 156.915 412.712 156.298 414.56 156.525C416.23 156.729 418.601 157.665 420.415 160.969C420.574 161.258 420.624 161.588 420.558 161.907C420.415 162.594 416.871 178.843 400.083 186.904C399.85 187.015 399.597 187.07 399.345 187.07Z" fill="#000072"/>
<path d="M318.662 135.166C318.662 135.166 321.404 142.321 320.615 152.76L329.648 159.996C329.648 159.996 332.008 147.384 327.988 136.91L318.662 135.166Z" fill="#0096F2"/>
<path d="M322.253 152.128L328.43 157.076C328.848 153.052 329.205 145.162 326.767 138.181L320.9 137.084C321.659 139.988 322.67 145.331 322.253 152.128ZM329.645 161.465C329.266 161.465 328.892 161.34 328.598 161.104L319.565 153.868C319.187 153.566 318.986 153.118 319.021 152.658C319.774 142.683 317.18 135.722 317.154 135.653C316.965 135.155 317.08 134.6 317.457 134.202C317.835 133.804 318.415 133.625 318.976 133.727L328.302 135.471C328.851 135.573 329.302 135.934 329.488 136.421C333.601 147.133 331.316 159.715 331.217 160.246C331.119 160.768 330.722 161.202 330.179 161.38C330.005 161.437 329.824 161.465 329.645 161.465Z" fill="#000072"/>
<path d="M380.563 135.166C380.563 135.166 377.821 142.321 378.61 152.76L369.577 159.996C369.577 159.996 367.217 147.384 371.237 136.91L380.563 135.166Z" fill="#0096F2"/>
<path d="M372.453 138.18C370.01 145.174 370.368 153.057 370.788 157.078L376.966 152.128C376.549 145.331 377.561 139.987 378.319 137.083L372.453 138.18ZM369.575 161.465C369.395 161.465 369.214 161.437 369.04 161.38C368.497 161.202 368.101 160.768 368.003 160.246C367.904 159.715 365.619 147.133 369.731 136.42C369.918 135.933 370.368 135.573 370.918 135.47L380.243 133.726C380.806 133.619 381.387 133.803 381.764 134.202C382.141 134.6 382.256 135.155 382.065 135.653C382.024 135.763 379.448 142.712 380.199 152.658C380.234 153.117 380.032 153.565 379.655 153.868L370.622 161.104C370.327 161.34 369.954 161.465 369.575 161.465Z" fill="#000072"/>
<path d="M340.602 203.999C338.329 214.276 325.373 218.978 316.267 212.679C309.14 207.752 301.314 196.484 296.478 171.775C296.018 169.407 295.581 166.912 295.176 164.29L298.254 161.604L318.66 143.787C318.66 143.787 338.762 172.44 340.989 194.404V194.409C341.338 197.81 341.256 201.051 340.602 203.999Z" fill="#B11313"/>
<g opacity="0.300003">
<g opacity="0.300003">
<path opacity="0.300003" d="M340.603 203.999C338.33 214.276 325.373 218.978 316.267 212.679C309.14 207.752 301.314 196.484 296.478 171.775C289.673 168 287.336 158.295 287.336 158.295C284.4 145.409 287.787 133.531 287.787 133.531C287.142 149.216 293.904 156.698 296.693 159.1C297.47 159.769 298.014 160.632 298.25 161.588C298.252 161.593 298.253 161.598 298.254 161.604C303.237 181.903 311.584 206.634 323.694 208.405C335.385 210.112 340.423 196.09 340.989 194.409C341.339 197.81 341.256 201.051 340.603 203.999Z" fill="#000072"/>
</g>
</g>
<path d="M320.41 142.416C322.734 144.746 324.571 147.345 326.237 150.03C327.063 151.375 327.817 152.756 328.567 154.138C329.316 155.521 330.05 156.911 330.765 158.31C333.629 163.903 336.236 169.621 338.402 175.514C340.57 181.4 342.316 187.482 342.952 193.813C343.258 196.974 343.277 200.208 342.694 203.446C342.567 204.241 342.383 205.094 342.099 205.915C341.841 206.743 341.476 207.541 341.08 208.323C340.254 209.875 339.154 211.306 337.842 212.544C335.19 214.995 331.686 216.648 327.967 217.134C326.112 217.401 324.206 217.343 322.357 217.041C320.51 216.718 318.726 216.107 317.095 215.266C316.297 214.832 315.494 214.354 314.8 213.828L313.761 213.043C313.41 212.785 313.108 212.485 312.78 212.208C312.464 211.922 312.126 211.65 311.828 211.351L310.938 210.449C310.324 209.86 309.815 209.207 309.264 208.58C307.135 206.023 305.437 203.243 303.946 200.408C302.43 197.576 301.272 194.631 300.15 191.687C299.109 188.721 298.161 185.734 297.38 182.716C296.995 181.207 296.581 179.703 296.266 178.183C295.942 176.665 295.554 175.157 295.318 173.626C294.796 170.57 294.552 167.474 294.839 164.333C294.855 164.155 295.024 164.023 295.217 164.038C295.352 164.049 295.462 164.128 295.511 164.235L295.515 164.244C296.178 165.704 296.68 167.177 297.112 168.657C297.539 170.139 297.98 171.611 298.315 173.102C298.635 174.596 299.009 176.075 299.362 177.559C299.698 179.048 300.13 180.512 300.533 181.982C301.348 184.921 302.323 187.811 303.38 190.667C304.514 193.489 305.679 196.308 307.16 198.96C308.611 201.623 310.266 204.179 312.211 206.48C312.713 207.04 313.179 207.635 313.729 208.147L314.525 208.943C314.791 209.208 315.087 209.437 315.366 209.687C315.654 209.925 315.92 210.191 316.224 210.408L317.122 211.075C317.717 211.521 318.325 211.867 318.96 212.212C320.242 212.858 321.624 213.318 323.052 213.558C324.481 213.777 325.952 213.818 327.388 213.596C330.272 213.204 332.984 211.884 335.021 209.984C336.036 209.029 336.888 207.928 337.533 206.728C337.838 206.121 338.128 205.504 338.329 204.856C338.554 204.216 338.698 203.561 338.814 202.839C339.331 200.023 339.336 197.073 339.057 194.132C338.775 191.186 338.207 188.237 337.471 185.314C336.74 182.389 335.826 179.488 334.81 176.614C332.771 170.864 330.28 165.225 327.527 159.696C326.84 158.313 326.133 156.937 325.411 155.568C324.693 154.197 323.937 152.844 323.236 151.464C321.822 148.71 320.489 145.911 319.438 142.952L319.434 142.942C319.335 142.662 319.501 142.362 319.804 142.27C320.026 142.203 320.261 142.268 320.41 142.416Z" fill="#000072"/>
<path d="M300.943 190.352C300.514 190.352 300.085 190.193 299.771 189.88C299.174 189.284 299.213 188.356 299.86 187.806C300.451 187.302 314.599 175.452 336.261 173.961C337.137 173.896 337.904 174.507 337.97 175.316C338.036 176.125 337.377 176.83 336.498 176.89C315.986 178.302 302.162 189.846 302.024 189.963C301.718 190.223 301.33 190.352 300.943 190.352Z" fill="#000072"/>
<path d="M358.616 203.999C360.889 214.276 373.845 218.978 382.951 212.679C390.078 207.752 397.904 196.484 402.74 171.775C403.2 169.407 403.637 166.912 404.042 164.29L400.964 161.604L380.558 143.787C380.558 143.787 360.456 172.44 358.229 194.404V194.409C357.879 197.81 357.962 201.051 358.616 203.999Z" fill="#B11313"/>
<g opacity="0.300003">
<g opacity="0.300003">
<path opacity="0.300003" d="M358.629 204.003C360.902 214.28 373.859 218.982 382.964 212.683C390.091 207.756 397.918 196.488 402.754 171.779C409.559 168.004 411.896 158.299 411.896 158.299C414.832 145.413 411.445 133.535 411.445 133.535C412.09 149.22 405.328 156.702 402.539 159.104C401.762 159.773 401.218 160.636 400.982 161.592C400.98 161.597 400.979 161.602 400.978 161.608C395.995 181.907 387.648 206.638 375.538 208.409C363.847 210.116 358.809 196.094 358.243 194.412C357.893 197.814 357.976 201.055 358.629 204.003Z" fill="#000072"/>
</g>
</g>
<path d="M379.791 142.952C378.74 145.911 377.407 148.71 375.993 151.464C375.292 152.844 374.536 154.197 373.818 155.568C373.096 156.937 372.389 158.313 371.702 159.696C368.949 165.225 366.458 170.864 364.419 176.614C363.402 179.488 362.489 182.389 361.758 185.314C361.022 188.237 360.454 191.186 360.172 194.132C359.893 197.073 359.898 200.023 360.415 202.839C360.531 203.561 360.675 204.216 360.9 204.856C361.1 205.504 361.391 206.121 361.696 206.728C362.341 207.928 363.193 209.029 364.208 209.984C366.245 211.884 368.957 213.204 371.841 213.596C373.277 213.818 374.748 213.776 376.177 213.558C377.605 213.318 378.987 212.857 380.269 212.212C380.904 211.867 381.512 211.521 382.107 211.074L383.005 210.408C383.309 210.191 383.575 209.925 383.863 209.687C384.142 209.437 384.438 209.208 384.704 208.943L385.5 208.147C386.05 207.635 386.516 207.04 387.018 206.48C388.963 204.179 390.618 201.623 392.069 198.96C393.55 196.308 394.715 193.489 395.849 190.666C396.906 187.811 397.881 184.921 398.696 181.982C399.099 180.512 399.531 179.048 399.867 177.559C400.22 176.075 400.595 174.596 400.914 173.102C401.249 171.611 401.691 170.139 402.117 168.657C402.549 167.176 403.051 165.704 403.714 164.244L403.718 164.235C403.793 164.071 403.998 163.993 404.177 164.062C404.301 164.11 404.38 164.217 404.391 164.333C404.678 167.474 404.433 170.57 403.911 173.625C403.675 175.157 403.287 176.665 402.963 178.183C402.648 179.703 402.234 181.207 401.849 182.716C401.069 185.733 400.12 188.72 399.079 191.687C397.957 194.631 396.799 197.576 395.283 200.408C393.792 203.243 392.094 206.023 389.965 208.58C389.414 209.207 388.905 209.86 388.291 210.449L387.401 211.351C387.103 211.65 386.765 211.921 386.449 212.208C386.121 212.485 385.819 212.785 385.468 213.043L384.429 213.828C383.735 214.354 382.932 214.832 382.134 215.266C380.503 216.107 378.719 216.718 376.872 217.041C375.023 217.343 373.117 217.401 371.262 217.134C367.543 216.648 364.039 214.995 361.387 212.544C360.075 211.306 358.975 209.875 358.149 208.323C357.753 207.541 357.388 206.743 357.13 205.915C356.846 205.094 356.662 204.241 356.535 203.446C355.952 200.208 355.971 196.974 356.277 193.813C356.913 187.481 358.659 181.4 360.827 175.514C362.993 169.621 365.601 163.903 368.464 158.31C369.179 156.911 369.913 155.521 370.662 154.138C371.412 152.756 372.166 151.375 372.992 150.03C374.658 147.345 376.495 144.746 378.819 142.416C379.035 142.199 379.401 142.185 379.636 142.384C379.808 142.53 379.863 142.749 379.795 142.941L379.791 142.952Z" fill="#000072"/>
<path d="M398.282 190.352C397.895 190.352 397.507 190.223 397.2 189.962C397.063 189.846 383.238 178.301 362.726 176.889C361.848 176.828 361.189 176.123 361.255 175.315C361.32 174.506 362.087 173.895 362.964 173.96C384.625 175.451 398.773 187.301 399.365 187.805C400.012 188.355 400.051 189.285 399.453 189.88C399.139 190.193 398.711 190.352 398.282 190.352Z" fill="#000072"/>
<path d="M349.635 129.601C391.351 129.601 407.914 112.823 407.914 112.823C407.914 112.823 408.609 114.267 408.947 116.321C409.507 119.72 407.939 123.131 404.953 125.196C398.39 129.736 381.676 138.387 349.614 138.387C317.551 138.387 300.838 129.736 294.274 125.196C291.288 123.131 289.72 119.72 290.28 116.321C290.619 114.267 291.314 112.823 291.314 112.823C291.314 112.823 307.877 129.601 349.592 129.601" fill="#751313"/>
<g opacity="0.300003">
<g opacity="0.300003">
<path opacity="0.300003" d="M408.797 115.535C408.26 117.668 406.916 119.605 404.955 120.961C398.391 125.501 381.678 134.152 349.616 134.152C317.553 134.152 300.84 125.501 294.276 120.961C292.315 119.605 290.971 117.668 290.435 115.535C290.379 115.786 290.327 116.048 290.282 116.322C289.722 119.722 291.29 123.132 294.276 125.198C300.84 129.738 317.553 138.389 349.616 138.389C381.678 138.389 398.391 129.738 404.955 125.198C407.941 123.132 409.509 119.722 408.949 116.322C408.904 116.048 408.852 115.786 408.797 115.535Z" fill="#000072"/>
</g>
</g>
<path d="M349.614 139.855C317.595 139.855 300.598 131.406 293.317 126.37C289.825 123.955 288.058 120.02 288.704 116.101C289.07 113.878 289.823 112.294 289.855 112.228C290.074 111.774 290.527 111.452 291.059 111.373C291.591 111.293 292.131 111.468 292.494 111.835C292.654 111.996 309.189 128.132 349.592 128.132V131.069C315.085 131.069 297.58 119.862 292.073 115.498C291.993 115.82 291.919 116.17 291.857 116.541C291.388 119.39 292.681 122.257 295.233 124.022C302.196 128.838 318.521 136.918 349.614 136.918C380.707 136.918 397.032 128.838 403.996 124.022C406.547 122.257 407.84 119.391 407.37 116.541C407.309 116.17 407.235 115.82 407.155 115.498C401.648 119.862 384.143 131.069 349.636 131.069V128.132C390.176 128.132 406.573 111.998 406.734 111.835C407.097 111.468 407.637 111.294 408.169 111.373C408.701 111.452 409.154 111.774 409.373 112.228C409.405 112.294 410.158 113.878 410.524 116.101C411.17 120.02 409.403 123.955 405.912 126.37C398.63 131.406 381.633 139.855 349.614 139.855Z" fill="#000072"/>
<g opacity="0.3">
<path d="M223.514 18.8101C223.514 18.8101 224.408 22.3483 221.443 26.2987C221.443 26.2987 226.287 26.1625 228.616 29.0898C228.616 29.0898 227.84 24.835 231.167 21.6013C231.167 21.6013 226.62 22.3502 223.514 18.8101Z" fill="white"/>
</g>
<path d="M291.348 125.241L317.068 179.148" stroke="#000072" stroke-miterlimit="10"/>
<path d="M381.041 179.145L407.307 125.239" stroke="#000072" stroke-miterlimit="10"/>
<path fill-rule="evenodd" clip-rule="evenodd" d="M347.726 147.253C347.715 147.383 347.63 147.499 347.573 147.627C347.518 147.75 347.467 147.883 347.42 148.013C347.295 148.351 347.179 148.684 347.19 149.123C347.614 149.174 348.149 149.136 348.531 149.086C348.74 149.172 348.874 149.305 349.068 149.4C349.031 149.236 349.205 149.205 349.355 149.159C349.289 149.23 349.186 149.277 349.221 149.412C349.308 149.449 349.322 149.352 349.393 149.34C349.492 149.41 349.617 149.407 349.719 149.34C349.793 149.35 349.773 149.419 349.853 149.424C349.967 149.33 349.805 149.229 349.757 149.159C349.9 149.206 350.062 149.241 350.045 149.388C350.2 149.329 350.388 149.186 350.543 149.086C350.942 149.139 351.453 149.164 351.923 149.135C351.907 148.401 351.624 147.835 351.348 147.265C351.425 147.259 351.424 147.322 351.444 147.349C351.729 147.738 351.983 148.181 352.191 148.652C352.222 148.721 352.273 148.814 352.306 148.905C352.336 148.986 352.398 149.126 352.383 149.171C352.35 149.27 352.091 149.303 352.038 149.388C351.879 149.269 351.419 149.304 350.984 149.291C350.861 149.288 350.696 149.266 350.62 149.279C350.453 149.309 350.38 149.463 350.294 149.545C350.53 149.555 350.717 149.411 350.927 149.4C351.06 149.393 351.254 149.456 351.425 149.484C351.919 149.567 352.47 149.636 352.92 149.726C352.947 148.756 352.551 147.947 352.019 147.289C352.548 147.748 352.904 148.286 353.169 148.918C353.215 149.027 353.254 149.131 353.284 149.243C353.326 149.401 353.327 149.596 353.456 149.714C353.297 149.823 353.106 149.911 352.939 150.015C352.468 149.838 351.558 149.583 350.792 149.629C350.609 149.64 350.447 149.698 350.313 149.774C350.547 149.833 350.709 149.838 351.022 149.834C351.1 149.833 351.213 149.813 351.272 149.822C351.338 149.833 351.445 149.919 351.54 149.979C352.093 150.327 352.588 150.583 353.245 150.86C353.451 150.946 353.566 151.034 353.801 150.92C353.84 152.065 353.357 152.909 352.766 153.682C352.697 153.772 352.654 153.877 352.536 153.947C352.981 153.288 353.322 152.503 353.322 151.583C353.322 151.487 353.351 151.367 353.322 151.282C353.28 151.161 352.979 151.033 352.805 150.932C352.309 150.644 351.915 150.442 351.367 150.172C351.26 150.119 351.169 150.048 351.08 150.027C350.987 150.006 350.839 150.002 350.735 149.991C350.604 149.978 350.479 149.975 350.371 149.967C350.583 150.11 350.919 150.288 351.214 150.425C351.268 150.456 351.324 150.414 351.387 150.413C351.457 151.758 351.298 153.075 350.697 154.056C350.553 154.29 350.394 154.52 350.141 154.695C350.958 153.767 351.02 152.172 350.85 150.775C351.024 150.68 350.948 150.602 350.792 150.486C350.622 150.359 350.32 150.174 350.122 150.112C350.108 150.175 350.142 150.236 350.179 150.293C350.217 150.349 350.3 150.399 350.313 150.449C350.342 150.558 350.272 150.794 350.237 150.92C350.118 151.336 349.868 151.793 349.643 152.102C349.563 152.096 349.619 152.004 349.566 151.981C349.481 151.984 349.532 152.073 349.489 152.102C349.225 151.819 349 151.35 348.876 150.92C348.832 150.766 348.763 150.581 348.799 150.449C348.828 150.345 349.008 150.25 348.991 150.124C348.816 150.149 348.652 150.259 348.512 150.353C348.372 150.447 348.227 150.548 348.129 150.654C348.14 150.707 348.222 150.716 348.244 150.763C348.118 152.177 348.122 153.768 348.972 154.683C348.882 154.676 348.841 154.604 348.799 154.563C348.008 153.766 347.796 152.538 347.707 151.27C347.687 150.989 347.667 150.715 347.726 150.437C347.742 150.379 347.841 150.465 347.899 150.425C348.201 150.282 348.474 150.12 348.761 149.967C348.511 149.991 348.239 149.983 348.014 150.039C347.818 150.088 347.604 150.222 347.42 150.317C346.857 150.605 346.264 150.918 345.79 151.245C345.694 152.322 346.085 153.189 346.557 153.947C345.877 153.113 345.245 152.184 345.311 150.92C345.571 151.075 345.965 150.823 346.174 150.727C346.754 150.46 347.374 150.115 347.822 149.822C348.147 149.852 348.528 149.828 348.799 149.786C348.461 149.514 347.593 149.651 347.075 149.75C346.727 149.816 346.402 149.912 346.193 150.015C345.994 149.931 345.842 149.818 345.656 149.726C345.792 149.511 345.821 149.151 345.925 148.905C346.178 148.307 346.573 147.776 347.055 147.289C347.043 147.382 346.941 147.462 346.883 147.542C346.463 148.13 346.186 148.859 346.174 149.714C346.617 149.65 347.145 149.573 347.669 149.484C347.839 149.456 348.016 149.397 348.148 149.4C348.361 149.405 348.561 149.543 348.799 149.545C348.743 149.432 348.635 149.351 348.512 149.279C348.117 149.308 347.676 149.263 347.324 149.304C347.288 149.308 347.241 149.321 347.19 149.34C347.194 149.338 347.076 149.388 347.094 149.388C347.014 149.387 346.819 149.213 346.73 149.195C346.914 148.454 347.329 147.86 347.726 147.253Z" fill="#000072"/>
<path fill-rule="evenodd" clip-rule="evenodd" d="M349.619 139.855V160.684V139.855Z" fill="#000072"/>
<path d="M349.619 139.855V160.684" stroke="#000072" stroke-miterlimit="10"/>
<path d="M342.554 139.714C342.554 139.714 343.798 156.776 341.977 159.797" stroke="#000072" stroke-miterlimit="10"/>
<path d="M336.965 139.386C336.965 139.386 339.769 147.28 335.717 157.943" stroke="#000072" stroke-miterlimit="10"/>
<path d="M356.059 139.856C356.059 139.856 354.759 154.974 356.639 160.121" stroke="#000072" stroke-miterlimit="10"/>
<path d="M362.696 139.386C362.696 139.386 359.723 154.377 364.138 157.943" stroke="#000072" stroke-miterlimit="10"/>
<path d="M331.152 142.387C331.152 142.387 333.952 139.926 337.63 142.387C337.63 142.387 339.547 139.945 342.734 142.723C342.734 142.723 344.473 139.681 349.59 142.387C349.59 142.387 351.749 139.845 355.624 142.387C355.624 142.387 358.668 139.564 362.233 142.246C362.233 142.246 365.412 139.061 368.164 141.906" stroke="#000072" stroke-miterlimit="10"/>
<path d="M349.208 146.291C349.108 146.225 349.009 146.164 348.91 146.105C345.425 144.049 342.896 146.348 342.896 146.348C340.311 143.877 337.913 146.348 337.913 146.348C333.895 142.03 331.725 146.348 331.725 146.348" stroke="#000072" stroke-miterlimit="10"/>
<path d="M349.105 146.339C349.105 146.339 352.282 143.993 355.624 146.339C355.624 146.339 358.872 143.435 361.714 146.469C361.714 146.469 365.934 143.478 367.508 146.408" stroke="#000072" stroke-miterlimit="10"/>
<path d="M331.725 153.558C331.725 153.558 334.303 149.648 337.017 153.89C337.017 153.89 341.884 150.795 342.919 155.118C342.919 155.118 346.949 153.232 349.766 156.336C349.766 156.336 352.75 153.123 356.206 155.573C356.206 155.573 358.514 150.659 362.421 154.45C362.421 154.45 364.827 150.352 367.511 152.691" stroke="#000072" stroke-miterlimit="10"/>
<path d="M331.461 155.896C331.461 155.896 334.819 152.761 336.287 156.335C336.287 156.335 341.124 154.322 342.474 157.943C342.474 157.943 347.472 155.53 349.553 159.391C349.553 159.391 352.51 156.825 356.065 158.568C356.065 158.568 359.332 154.044 363.114 156.714C363.114 156.714 365.805 152.483 367.415 155.117" stroke="#000072" stroke-miterlimit="10"/>
<path d="M302.025 189.964C302.025 189.964 316.908 175.56 335.72 176.951L339.996 189.043C339.996 189.043 335.374 206.997 306.234 200.948L302.025 189.964Z" fill="#000072"/>
<path d="M302.025 189.964C302.025 189.964 316.908 175.56 335.72 176.951L339.996 189.043C339.996 189.043 335.374 206.997 306.234 200.948L302.025 189.964Z" stroke="#000072" stroke-miterlimit="10"/>
<path d="M358.549 192.014L362.931 174.858L383.582 180.639L395.887 187.071V192.014L392.997 200.947C392.997 200.947 372.323 207.213 358.549 192.014Z" fill="#000072"/>
<path d="M358.549 192.014L362.931 174.858L383.582 180.639L395.887 187.071V192.014L392.997 200.947C392.997 200.947 372.323 207.213 358.549 192.014Z" stroke="#000072" stroke-miterlimit="10"/>
<path d="M254.041 169.166L269.939 207.117" stroke="#000072" stroke-miterlimit="10"/>
<path d="M249.912 173.957C249.912 173.957 252.659 191.525 264.651 206.832" stroke="#000072" stroke-miterlimit="10"/>
<path d="M260.492 167.707C260.492 167.707 272.909 187.115 274.828 207.426" stroke="#000072" stroke-miterlimit="10"/>
<path d="M268.459 169.166C268.459 169.166 275.99 182.987 280.236 207.117" stroke="#000072" stroke-miterlimit="10"/>
<path d="M248.225 182.154C248.225 182.154 248.256 178.267 251.257 179.774C251.257 179.774 252.374 172.977 257.28 177.292C257.28 177.292 257.466 170.391 264.321 174.529C264.321 174.529 266.277 169.465 270.384 173.957C270.384 173.957 272.42 172.921 273.731 175.257" stroke="#000072" stroke-miterlimit="10"/>
<path d="M250.389 176.332C250.389 176.332 251.441 171.305 255.631 172.971C255.631 172.971 256.461 168.839 261.986 170.213C261.986 170.213 262.799 167.511 269.356 170.965" stroke="#000072" stroke-miterlimit="10"/>
<path d="M248.809 184.221C248.809 184.221 249.04 180.325 252.241 183.036C252.241 183.036 253.249 176.292 258.841 180.637C258.841 180.637 258.991 174.034 265.498 177.766C265.498 177.766 267.892 174.078 272.065 177.291C272.065 177.291 272.81 175.372 274.892 177.291" stroke="#000072" stroke-miterlimit="10"/>
<path d="M248.809 187.564C248.809 187.564 250.108 183.819 253.662 187.07C253.662 187.07 255.837 180.954 260.49 185.093C260.49 185.093 262.365 176.929 268.072 182.536C268.072 182.536 268.96 177.206 273.5 181.15C273.5 181.15 273.844 177.876 276.238 180.504" stroke="#000072" stroke-miterlimit="10"/>
<path d="M249.912 190.393C249.912 190.393 251.121 187.307 254.643 189.522C254.643 189.522 258.472 184.652 261.986 188.14C261.986 188.14 265.757 182.898 269.355 186.882C269.355 186.882 271.227 181.963 274.928 185.387C274.928 185.387 276.299 183.554 277.407 185.14" stroke="#000072" stroke-miterlimit="10"/>
<path d="M251.186 194.025C251.186 194.025 253.314 190.665 256.036 192.672C256.036 192.672 258.421 188.841 263.617 192.032C263.617 192.032 266.091 186.847 271.179 190.763C271.179 190.763 273.019 186.35 276.241 190.351C276.241 190.351 276.253 186.069 278.509 188.141" stroke="#000072" stroke-miterlimit="10"/>
<path d="M252.75 198.266V197.187C252.75 197.187 254.176 193.256 257.591 195.821C257.591 195.821 261.116 192.1 264.847 194.971C264.847 194.971 268.702 190.325 272.189 194.028C272.189 194.028 274.289 189.968 277.408 194.013" stroke="#000072" stroke-miterlimit="10"/>
<path d="M255.404 199.582C255.404 199.582 255.536 197.49 258.919 198.264C258.919 198.264 262.545 195.735 266.15 198.092C266.15 198.092 268.694 193.939 273.011 197.087C273.011 197.087 276 193.851 278.045 196.591" stroke="#000072" stroke-miterlimit="10"/>
<path d="M257.283 202.193C257.283 202.193 258.59 200.364 260.981 201.661C260.981 201.661 264.086 198.889 267.456 201.196C267.456 201.196 269.8 197.926 273.744 200.279C273.744 200.279 276.245 197.297 278.741 199.583" stroke="#000072" stroke-miterlimit="10"/>
<path d="M259.877 204.047C259.877 204.047 260.287 202.109 262.53 203.962C262.53 203.962 265.15 202.413 268.463 204.047C268.463 204.047 272.076 201.961 274.351 203.603C274.351 203.603 277.31 201.557 279.275 203.51" stroke="#000072" stroke-miterlimit="10"/>
<path d="M263.66 205.401C263.66 205.401 265.403 203.715 269.356 205.734C269.356 205.734 271.526 204.514 273.513 204.944C273.797 205.006 274.077 205.101 274.347 205.238" stroke="#000072" stroke-miterlimit="10"/>
<path d="M274.645 205.744C274.645 205.744 276.655 204.128 280.069 205.241" stroke="#000072" stroke-miterlimit="10"/>
<path d="M278.508 187.574C277.909 188.829 280.236 208.578 280.236 208.578H309.266L308.648 207.116L302.026 195.488L297.882 184.564C288.49 183.338 279.271 163.089 279.271 163.089L272.734 169.489L274.348 172.97L277.408 179.482L278.508 187.574Z" fill="#000072"/>
<path d="M443.994 168.247L429.783 207.117" stroke="#000072" stroke-miterlimit="10"/>
<path d="M447.771 172.992C447.771 172.992 445.244 197.796 433.385 207.713" stroke="#000072" stroke-miterlimit="10"/>
<path d="M438.518 168.012C438.518 168.012 428.894 189.293 424.324 207.355" stroke="#000072" stroke-miterlimit="10"/>
<path d="M430.523 169.875C430.523 169.875 423.518 181.968 419.885 209.602" stroke="#000072" stroke-miterlimit="10"/>
<path d="M450.13 179.545C450.13 179.545 449.364 176.106 446.936 178.421C446.936 178.421 445.921 172.274 441.132 176.07C441.132 176.07 439.78 170.831 435.577 174.858C435.577 174.858 432.305 169.851 428.231 174.858C428.231 174.858 427.389 173.59 425.418 175.257" stroke="#000072" stroke-miterlimit="10"/>
<path d="M450.375 183.023C450.375 183.023 449.475 179.65 446.163 182.153C446.163 182.153 444.237 177.926 439.461 180.638C439.461 180.638 438.342 176.356 433.379 179.145C433.379 179.145 431.912 175.885 426.969 178.201C426.969 178.201 425.813 176.14 423.742 178.383" stroke="#000072" stroke-miterlimit="10"/>
<path d="M450.381 187.07C450.381 187.07 448.489 183.437 445.257 185.79C445.257 185.79 442.237 181.851 437.872 184.997C437.872 184.997 436.221 181.156 432.024 183.778C432.024 183.778 429.877 179.544 425.421 182.536C425.421 182.536 424.604 180.304 421.365 182.154" stroke="#000072" stroke-miterlimit="10"/>
<path d="M449.599 190.352C449.599 190.352 448.484 186.759 444.072 189.739C444.072 189.739 441.066 185.128 436.577 188.541C436.577 188.541 434.637 183.843 430.523 187.681C430.523 187.681 429.226 183.859 424.327 186.763C424.327 186.763 423.61 183.773 421.52 186.339C419.429 188.905 420.967 186.291 420.967 186.291" stroke="#000072" stroke-miterlimit="10"/>
<path d="M448.41 193.918C448.41 193.918 446.814 189.907 442.88 193.056C442.88 193.056 440.418 189.782 435.363 191.85C435.363 191.85 432.307 188.472 428.764 191.848C428.764 191.848 426.351 188.414 423.183 191.275C423.183 191.275 421.949 185.64 418.971 191.086" stroke="#000072" stroke-miterlimit="10"/>
<path d="M445.995 196.699C445.995 196.699 445.898 193.035 441.653 195.982C441.653 195.982 438.856 192.388 433.932 195.768C433.932 195.768 431.27 192.069 427.669 195.977C427.669 195.977 425.216 192.393 422.173 195.863C422.173 195.863 422.078 189.887 417.971 194.572" stroke="#000072" stroke-miterlimit="10"/>
<path d="M443.998 199.801C443.998 199.801 443.366 197.802 439.976 199.346C439.976 199.346 436.293 196.8 432.653 199.281C432.653 199.281 430.552 196.561 426.706 198.998C426.706 198.998 423.542 196.458 421.368 198.892C421.368 198.892 421.56 194.348 416.945 197.837" stroke="#000072" stroke-miterlimit="10"/>
<path d="M441.553 202.226C441.553 202.226 441.033 199.969 438.216 202.226C438.216 202.226 435.019 200.247 431.423 202.637C431.423 202.637 427.885 200.574 425.609 202.637C425.609 202.637 423.17 199.594 420.589 202.637C420.589 202.637 419.799 198.616 417.307 201.93" stroke="#000072" stroke-miterlimit="10"/>
<path d="M439.396 203.388C439.396 203.388 438.228 202.404 437.057 203.829C437.057 203.829 432.382 202.564 430.516 205.104C430.516 205.104 428.508 203.089 424.911 205.104C424.911 205.104 423.154 202.128 420.519 205.104C420.519 205.104 419.067 201.148 416.346 205.104" stroke="#000072" stroke-miterlimit="10"/>
<path d="M402.305 184.245L411.635 175.966L418.974 164.506L419.882 161.962L426.042 168.246L426.525 171.368L423.186 174.857L421.364 179.145L420.587 184.245V186.984L420.524 188.812C420.524 188.812 417.338 202.64 418.974 208.082L390.558 208.73L389.631 207.117L394.272 198.816L399.367 187.805L402.305 184.245Z" fill="#000072"/>
<path d="M397.092 130.566C397.092 130.566 374.351 171.194 371.797 182.537" stroke="#000072" stroke-miterlimit="10"/>
<path d="M389.832 133.686C389.832 133.686 367.602 174.651 369.568 178.117" stroke="#000072" stroke-miterlimit="10"/>
<path d="M411.058 131.448C411.058 131.448 394.158 173.829 386.297 183.732" stroke="#000072" stroke-miterlimit="10"/>
<path d="M380.566 139.856C380.566 139.856 385.709 134.845 386.981 139.028C386.981 139.028 390.434 134.347 393.247 137.553C393.247 137.553 399.948 132.586 401.021 138.143C401.021 138.143 407.113 133.724 407.621 139.856C407.621 139.856 409.833 139.28 409.779 144.431C409.779 144.431 411.767 148.433 411.19 149.988" stroke="#000072" stroke-miterlimit="10"/>
<path d="M389.041 135.167C389.041 135.167 393.068 131.819 395.367 133.687C395.367 133.687 400.785 128.631 403.61 132.837C403.61 132.837 408.969 131.966 409.064 136.375C409.064 136.375 411.233 138.881 411.064 139.857C411.064 139.857 408.581 155.22 403.831 164.35C403.831 164.35 397.533 184.244 391.119 185.836" stroke="#000072" stroke-miterlimit="10"/>
<path d="M379.789 142.942C379.789 142.942 383.009 139.242 384.918 142.942C384.918 142.942 389.639 138.752 389.831 142.942C389.831 142.942 397.283 139.625 398.267 143.787C398.267 143.787 403.769 140.176 404.882 146.35C404.882 146.35 410.172 144.528 408.494 150.811C408.494 150.811 411.429 150.104 410.875 154.055" stroke="#000072" stroke-miterlimit="10"/>
<path d="M376.891 147.568C376.891 147.568 381.569 143.544 382.158 148.28C382.158 148.28 386.689 144.219 386.936 149.352C386.936 149.352 395.031 145.526 394.846 150.811C394.846 150.811 400.5 149.152 401.515 154.127C401.515 154.127 406.399 152.627 406.907 156.824C406.907 156.824 410.51 156.618 410.172 159.297" stroke="#000072" stroke-miterlimit="10"/>
<path d="M374.402 152.693C374.402 152.693 378.007 147.151 380.199 152.66C380.199 152.66 383.115 150.238 384.438 153.669C384.438 153.669 391.529 151.491 392.15 156.338C392.15 156.338 396.949 153.562 399.341 157.946C399.341 157.946 404.907 157.1 405.716 160.123C405.716 160.123 408.254 159.395 409.164 161.965" stroke="#000072" stroke-miterlimit="10"/>
<path d="M372.984 155.901C372.984 155.901 376.32 154.295 377.315 157.943C377.315 157.943 380.77 155.16 382.157 158.498C382.157 158.498 387.814 156.507 389.628 160.683C389.628 160.683 395.756 158.543 397.748 162.483C397.748 162.483 401.904 161.465 404.171 164.061C404.171 164.061 406.928 163.108 407.304 165.699" stroke="#000072" stroke-miterlimit="10"/>
<path d="M370.598 160.186C370.598 160.186 375.222 157.022 375.215 162.33C375.215 162.33 379.232 159.712 379.793 162.981C379.793 162.981 386.047 161.311 387.593 165.7C387.593 165.7 392.8 162.206 395.371 167.539C395.371 167.539 400.728 164.898 401.943 169.25" stroke="#000072" stroke-miterlimit="10"/>
<path d="M368.889 165.268C368.889 165.268 372.463 161.72 373.656 165.7C373.656 165.7 376.946 163.136 378.161 166.776C378.161 166.776 383.917 165.306 385.861 169.25C385.861 169.25 391.028 167.208 393.542 171.263C393.542 171.263 398.009 168.641 400.316 172.633" stroke="#000072" stroke-miterlimit="10"/>
<path d="M367.281 168.619C367.281 168.619 370.944 166.532 372.097 169.25C372.097 169.25 375.305 167.209 376.54 170.242C376.54 170.242 382.833 169.05 383.809 172.633C383.809 172.633 389.553 171.121 391.784 174.69C391.784 174.69 396.148 173.267 398.675 176.089C398.675 176.089 399.697 175.525 399.695 178.117" stroke="#000072" stroke-miterlimit="10"/>
<path d="M365.889 171.773C365.889 171.773 369.803 169.926 370.597 172.295C370.597 172.295 374.797 170.746 375.135 173.396C375.135 173.396 382.258 171.912 382.681 175.78C382.681 175.78 388.987 174.041 389.919 178.117C389.919 178.117 395.386 176.047 396.594 180.639C396.594 180.639 398.727 179.708 399.345 182.537" stroke="#000072" stroke-miterlimit="10"/>
<path d="M298.533 127.609C298.533 127.609 318.805 158.287 323.542 178.117" stroke="#000072" stroke-miterlimit="10"/>
<path d="M310.162 133.53C310.162 133.53 325.306 159.072 330.335 175.977" stroke="#000072" stroke-miterlimit="10"/>
<path d="M288.781 132.477C288.781 132.477 306.435 178.561 312.217 182.154" stroke="#000072" stroke-miterlimit="10"/>
<path d="M288.078 141.079C288.078 141.079 302.357 182.146 306.616 184.246" stroke="#000072" stroke-miterlimit="10"/>
<path d="M290.057 134.332C290.057 134.332 290.45 129.512 294.716 132.303C294.716 132.303 296.416 128.85 301.248 131.863C301.248 131.863 302.531 130.014 306.613 131.52" stroke="#000072" stroke-miterlimit="10"/>
<path d="M289.035 143.787C289.035 143.787 289.418 140.395 292.428 141.721C292.428 141.721 293.359 137.021 298.54 140.307C298.54 140.307 299.501 135.362 305.219 138.388C305.219 138.388 308.812 134.055 312.95 138.388C312.95 138.388 315.979 135.798 318.19 138.388" stroke="#000072" stroke-miterlimit="10"/>
<path d="M288.078 139.715C288.078 139.715 289.406 137.65 291.001 138.388C291.001 138.388 292.721 133.899 296.434 135.899C296.434 135.899 298.787 132.645 303.034 134.756C303.034 134.756 307.455 132.882 310.165 134.043" stroke="#000072" stroke-miterlimit="10"/>
<path d="M287.588 150.219C287.588 150.219 288.098 147.936 290.995 149.25C290.995 149.25 291.394 145.799 294.713 147.582C294.713 147.582 295.565 142.844 301.472 145.778C301.472 145.778 302.068 140.25 308.337 143.787C308.337 143.787 311.095 139.548 315.271 142.605C315.271 142.605 315.736 140.191 318.936 142.244" stroke="#000072" stroke-miterlimit="10"/>
<path d="M288.078 155.549C288.078 155.549 289.4 151.772 292.772 154.054C292.772 154.054 293.47 150.026 296.937 152.69C296.937 152.69 299.506 148.988 303.268 150.81C303.268 150.81 306.653 145.787 311.042 148.665C311.042 148.665 314.228 144.796 317.669 147.081C317.669 147.081 317.791 145.605 321.048 146.35" stroke="#000072" stroke-miterlimit="10"/>
<path d="M289.051 159.297C289.051 159.297 289.959 155.413 294.233 157.945C294.233 157.945 296.218 155.288 298.804 157.077C298.804 157.077 301.029 152.584 305.625 155.169C305.625 155.169 308.71 151.078 313.665 153.653C313.665 153.653 315.93 150.237 320.293 152.194C320.293 152.194 319.922 150.186 323.235 151.464" stroke="#000072" stroke-miterlimit="10"/>
<path d="M290.729 163.09C290.729 163.09 291.724 159.682 295.174 161.392C295.174 161.392 297.23 157.826 300.352 160.515C300.352 160.515 301.729 155.981 307.571 159.08C307.571 159.08 310.359 155.122 315.494 157.058C315.494 157.058 317.533 153.315 322.131 155.605C322.131 155.605 323.087 153.747 325.408 155.232" stroke="#000072" stroke-miterlimit="10"/>
<path d="M290.998 166.475C290.998 166.475 292.398 162.111 296.222 163.091C296.222 163.091 299.659 161.388 301.391 162.947C301.391 162.947 306.331 159.531 308.868 161.965C308.868 161.965 313.973 158.25 317.066 160.616C317.066 160.616 320.552 157.921 323.965 159.798C323.965 159.798 325.834 157.9 328.144 159.297" stroke="#000072" stroke-miterlimit="10"/>
<path d="M330.336 164.508C330.336 164.508 326.78 160.183 325.955 164.251C325.955 164.251 319.885 160.904 319.313 165.701C319.313 165.701 313.351 161.579 311.254 166.964C311.254 166.964 305.158 163.879 303.608 168.223C303.608 168.223 299.72 164.479 299.119 169.251C299.119 169.251 297.089 168.537 296.734 170.389" stroke="#000072" stroke-miterlimit="10"/>
<path d="M331.939 168.223C331.939 168.223 328.652 164.881 327.777 168.67C327.777 168.67 322.945 165.744 320.901 169.7C320.901 169.7 315.69 167.276 313.665 171.773C313.665 171.773 308.091 168.913 306.612 173.844C306.612 173.844 302.784 172.418 301.474 175.978C301.474 175.978 299.506 175.498 298.533 178.117" stroke="#000072" stroke-miterlimit="10"/>
<path d="M332.71 171.088C332.71 171.088 330.229 166.961 329.07 172.099C329.07 172.099 325.991 170.336 322.386 173.957C322.386 173.957 317.775 172.504 315.244 175.313C315.244 175.313 311.592 174.389 308.942 176.855C308.797 176.991 308.654 177.136 308.516 177.293" stroke="#000072" stroke-miterlimit="10"/>
<path d="M308.645 177.135C308.645 177.135 305.239 176.85 303.47 179.773C303.47 179.773 301.012 179.87 299.878 182.536C298.743 185.202 299.345 182.153 299.345 182.153" stroke="#000072" stroke-miterlimit="10"/>
<path fill-rule="evenodd" clip-rule="evenodd" d="M349.308 19.2119C388.428 19.2119 418.522 56.6984 418.522 87.9997C418.522 119.302 363.363 131.95 349.308 132.567C335.253 133.185 277.227 118.384 277.227 87.0818C277.227 55.7799 310.188 19.2119 349.308 19.2119Z" fill="#FF850B"/>
<path d="M349.308 20.7348C310.295 20.7348 278.879 57.0309 278.879 87.0826C278.879 94.8971 282.737 102.246 290.345 108.925C307.292 123.802 338.213 131.063 348.436 131.064C348.717 131.064 348.98 131.059 349.229 131.048C356.636 130.723 373.7 127.213 388.446 120.429C401.412 114.464 416.868 103.996 416.868 88.0003C416.868 56.8939 387.356 20.7348 349.308 20.7348ZM348.478 134.107C337.511 134.107 305.904 126.789 288.063 111.128C279.775 103.852 275.572 95.7621 275.572 87.0826C275.572 71.4147 283.726 53.9538 297.384 40.3751C311.884 25.9588 330.809 17.6904 349.308 17.6904C367.921 17.6904 385.866 25.9245 399.838 40.8758C412.572 54.5034 420.175 72.12 420.175 88.0003C420.175 101.893 409.714 114.048 389.924 123.153C374.748 130.134 357.083 133.751 349.386 134.089C349.102 134.101 348.798 134.107 348.478 134.107Z" fill="#000072"/>
<g opacity="0.5">
<g opacity="0.5">
<path opacity="0.5" fill-rule="evenodd" clip-rule="evenodd" d="M349.301 19.2134C373.344 19.2134 393.975 33.3752 406.308 51.556C406.436 52.1435 406.56 52.7335 406.668 53.3281C395.408 38.1327 377.852 28.1127 358.409 25.4097C359.656 25.8433 360.379 26.3583 360.379 26.911C360.379 28.456 354.727 29.7083 347.755 29.7083C340.784 29.7083 335.132 28.456 335.132 26.911C335.132 26.3583 335.854 25.8433 337.101 25.4097C317.658 28.1133 300.103 38.1339 288.844 53.3281L288.906 53.0078C301.889 34.1007 324.341 19.2134 349.301 19.2134Z" fill="white"/>
</g>
</g>
<path fill-rule="evenodd" clip-rule="evenodd" d="M416.664 97.6171C406.937 121.926 361.824 132.018 349.308 132.567C336.921 133.111 290.388 121.676 279.516 97.528C280.349 84.3746 287.607 80.7796 301.03 87.2075C306.55 89.8502 312.165 92.6069 316.615 90.5079C342.012 78.5232 357.52 80.7826 374.903 90.5079C383.032 95.0563 390.966 88.2717 395.943 86.2033C411.796 79.6134 419.069 84.2224 416.664 97.6171Z" fill="white"/>
<g opacity="0.300003">
<g opacity="0.300003">
<path opacity="0.300003" fill-rule="evenodd" clip-rule="evenodd" d="M418.229 82.5345C418.426 84.3715 418.53 86.1966 418.53 88.0006C418.53 89.1539 418.447 90.2776 418.302 91.3808L418.317 91.051C416.385 111.94 370.694 127.89 346.114 129.178C325.596 130.253 284.616 109.919 277.726 91.051C277.739 91.4421 277.76 91.8326 277.78 92.2226C277.429 90.5608 277.234 88.8495 277.234 87.0828C277.234 85.6764 277.304 84.2594 277.434 82.8348L277.541 82.5298C293.558 103.732 319.835 116.373 347.887 116.373C375.937 116.373 402.211 103.732 418.229 82.5345Z" fill="#000072"/>
</g>
</g>
<path fill-rule="evenodd" clip-rule="evenodd" d="M324 72.5331C321.812 71.6352 319.573 70.1304 317.285 68.0215C313.318 68.1872 310.145 72.0883 310.145 76.8759C310.145 81.7692 313.458 85.7363 317.546 85.7363C321.635 85.7363 324.949 81.7692 324.949 76.8759C324.949 75.298 324.604 73.8167 324 72.5331Z" fill="#000072"/>
<path d="M386.121 64.1889C383.451 67.454 380.826 69.9787 378.246 71.763C374.451 74.3881 370.344 74.8476 369.889 71.9565C371.93 71.7413 374.057 70.8676 376.27 69.3374C381.723 65.5645 383.428 63.1354 386.121 64.1889Z" fill="#000072"/>
<path fill-rule="evenodd" clip-rule="evenodd" d="M373.674 72.5331C375.861 71.6352 378.1 70.1304 380.389 68.0215C384.356 68.1872 387.529 72.0883 387.529 76.8759C387.529 81.7692 384.216 85.7363 380.127 85.7363C376.039 85.7363 372.725 81.7692 372.725 76.8759C372.725 75.298 373.069 73.8167 373.674 72.5331Z" fill="#000072"/>
<path fill-rule="evenodd" clip-rule="evenodd" d="M377.072 74.6206C375.871 74.6206 374.898 75.575 374.898 76.7517C374.898 77.9285 375.871 78.8828 377.072 78.8828C378.272 78.8828 379.245 77.9285 379.245 76.7517C379.245 75.575 378.272 74.6206 377.072 74.6206Z" fill="white"/>
<path fill-rule="evenodd" clip-rule="evenodd" d="M347.88 78.4302C353.173 78.4302 357.464 81.064 357.464 84.3125C357.464 87.5615 353.173 90.1953 347.88 90.1953C342.586 90.1953 338.295 87.5615 338.295 84.3125C338.295 81.064 342.586 78.4302 347.88 78.4302Z" fill="#000072"/>
<path d="M357.04 97.4043C353.666 97.4043 350.403 96.2492 347.899 94.1849C345.102 96.5299 341.247 97.6207 337.458 97.0661C333.056 96.4221 329.323 93.6445 327.715 89.817C327.386 89.0328 327.809 88.1513 328.661 87.8479C329.512 87.5448 330.47 87.9346 330.799 88.7186C331.984 91.5384 334.734 93.5849 337.977 94.0592C341.222 94.5339 344.524 93.3737 346.6 91.032C346.91 90.6823 347.373 90.4773 347.863 90.4723C348.358 90.4729 348.82 90.6632 349.139 91.0064C351.304 93.3425 354.575 94.5834 357.903 94.3264C361.226 94.0698 364.232 92.3429 365.943 89.7074C366.412 88.9854 367.428 88.75 368.211 89.182C368.994 89.6132 369.25 90.5481 368.781 91.2695C366.525 94.7447 362.562 97.0218 358.179 97.3602C357.799 97.3898 357.419 97.4043 357.04 97.4043Z" fill="#000072"/>
<path fill-rule="evenodd" clip-rule="evenodd" d="M347.884 91.9951C351.33 95.0113 354.716 96.2943 358.043 95.8437C358.866 115.724 336.975 114.914 337.72 95.5629C341.798 96.0395 345.185 94.8508 347.884 91.9951Z" fill="#000072"/>
<path d="M339.367 97.1877C339.531 102.253 341.482 106.236 344.733 108.008C346.88 109.178 349.307 109.194 351.391 108.052C354.503 106.345 356.292 102.526 356.407 97.4483C353.594 97.3653 350.767 96.2444 347.968 94.1011C345.559 96.1539 342.702 97.1879 339.442 97.1879C339.417 97.1879 339.392 97.1879 339.367 97.1877ZM348.131 111.936C346.394 111.936 344.648 111.499 343.048 110.627C338.341 108.062 335.797 102.551 336.069 95.5085L336.133 93.8426L337.929 94.0525C341.46 94.4643 344.304 93.4642 346.637 90.9955L347.771 89.7954L349.023 90.8913C352.111 93.5927 354.986 94.7204 357.803 94.3371L359.626 94.0903L359.696 95.7852C359.986 102.78 357.575 108.204 353.083 110.667C351.541 111.513 349.84 111.936 348.131 111.936Z" fill="#000072"/>
<path fill-rule="evenodd" clip-rule="evenodd" d="M348.06 102.989C345.117 102.989 342.352 104.287 340.623 106.478C344.603 111.696 351.659 111.781 355.461 106.434C353.73 104.269 350.982 102.989 348.06 102.989Z" fill="#FF0066"/>
<path d="M342.768 106.514C344.301 108.07 346.229 108.914 348.229 108.896C350.163 108.867 351.946 108.027 353.35 106.506C351.951 105.243 350.048 104.513 348.064 104.513C346.072 104.513 344.167 105.246 342.768 106.514ZM348.126 111.941C344.721 111.941 341.502 110.276 339.274 107.354L338.596 106.465L339.289 105.585C341.323 103.008 344.603 101.469 348.064 101.469C351.497 101.469 354.761 102.988 356.796 105.533L357.477 106.384L356.849 107.269C354.774 110.187 351.652 111.89 348.283 111.94C348.231 111.941 348.178 111.941 348.126 111.941Z" fill="#000072"/>
<path fill-rule="evenodd" clip-rule="evenodd" d="M410.474 56.1484C399.856 39.9942 387.125 29.0573 372.281 23.3392C401.399 -14.224 414.129 -3.28763 410.474 56.1484Z" fill="#FF850B"/>
<path d="M374.814 22.7003C387.846 28.176 399.349 37.7744 409.081 51.2874C410.857 14.6644 405.461 4.91793 400.498 3.31082C396.71 2.08522 389.2 4.52244 374.814 22.7003ZM411.818 61.1406L409.054 56.9366C398.67 41.1389 386.081 30.3076 371.638 24.7435L369.727 24.0073L370.93 22.4549C384.249 5.2725 394.277 -1.93167 401.595 0.438961C410.93 3.46196 414.274 21.1914 412.12 56.2346L411.818 61.1406Z" fill="#000072"/>
<path fill-rule="evenodd" clip-rule="evenodd" d="M369.749 58.1156C372.198 57.1911 374.667 57.5262 375.262 58.8643C375.858 60.2024 374.356 62.0371 371.908 62.9622C369.459 63.8867 366.99 63.551 366.394 62.213C365.798 60.8749 367.301 59.0401 369.749 58.1156Z" fill="white"/>
<path fill-rule="evenodd" clip-rule="evenodd" d="M327.087 58.0269C324.638 57.102 322.17 57.4376 321.574 58.7754C320.978 60.1134 322.48 61.9479 324.929 62.8722C327.377 63.7966 329.846 63.4615 330.442 62.1237C331.038 60.7858 329.536 58.9512 327.087 58.0269Z" fill="white"/>
<path fill-rule="evenodd" clip-rule="evenodd" d="M318.634 74.6206C317.434 74.6206 316.461 75.575 316.461 76.7517C316.461 77.9285 317.434 78.8828 318.634 78.8828C319.834 78.8828 320.807 77.9285 320.807 76.7517C320.807 75.575 319.834 74.6206 318.634 74.6206Z" fill="white"/>
<path fill-rule="evenodd" clip-rule="evenodd" d="M286.397 56.9199C297.014 40.7651 309.745 29.8287 324.589 24.1101C295.472 -13.4532 282.741 -2.51624 286.397 56.9199Z" fill="#FF850B"/>
<path d="M298.134 3.81749C297.47 3.81749 296.883 3.91653 296.366 4.08411C291.403 5.69129 286.007 15.4374 287.783 52.0601C297.515 38.5476 309.017 28.9493 322.049 23.473C309.628 7.77792 302.333 3.81749 298.134 3.81749ZM285.047 61.9141L284.745 57.0075C282.59 21.9645 285.934 4.23534 295.269 1.21211C302.582 -1.15562 312.614 6.04433 325.934 23.2277L327.137 24.7801L325.226 25.5162C310.782 31.0808 298.193 41.9123 287.81 57.7096L285.047 61.9141Z" fill="#000072"/>
<g opacity="0.649994">
<g opacity="0.649994">
<path opacity="0.649994" fill-rule="evenodd" clip-rule="evenodd" d="M320.953 25.6367C322.155 25.0898 323.371 24.5796 324.602 24.1047C306.556 0.823984 294.807 -3.81802 289.35 10.1599C295.162 0.330818 305.695 5.48904 320.951 25.6355L320.953 25.6367Z" fill="white"/>
</g>
</g>
<path fill-rule="evenodd" clip-rule="evenodd" d="M294.345 45.9688C299.52 40.0749 305.386 34.9732 311.943 30.665C297.245 4.31376 291.379 9.41483 294.345 45.9688Z" fill="#000072"/>
<path d="M298.13 15.6312C298.058 15.6312 298.009 15.6401 297.98 15.6476C297.803 15.6935 296.232 16.2894 295.56 23.0006C295.107 27.5225 295.16 33.9434 295.717 42.1214C299.991 37.6699 304.718 33.6751 309.824 30.2038C302.09 16.5947 298.882 15.6312 298.13 15.6312ZM293.01 49.9141L292.699 46.083C290.442 18.2681 293.649 13.6077 297.083 12.7172C301.191 11.6496 306.078 16.8117 313.417 29.9707L314.07 31.141L312.907 31.9052C306.505 36.1115 300.693 41.1655 295.633 46.9268L293.01 49.9141Z" fill="#000072"/>
<g opacity="0.300003">
<g opacity="0.300003">
<path opacity="0.300003" fill-rule="evenodd" clip-rule="evenodd" d="M296.26 14.9851C290.896 18.678 287.432 28.6693 285.867 44.9581C285.961 48.6987 286.139 52.6848 286.399 56.918C287.192 55.5972 288.031 54.2917 288.917 53.0069L288.855 53.3272C293.14 47.3106 297.748 42.0946 302.68 37.6785C299.796 40.1827 297.079 42.8787 294.527 45.7657C294.477 45.8223 294.427 45.8784 294.377 45.9362C294.373 45.9408 294.369 45.9462 294.363 45.9527C294.359 45.9574 294.355 45.9622 294.35 45.9668C292.913 28.2559 293.55 17.9288 296.26 14.9851ZM400.614 14.2153C405.978 17.9087 409.442 27.8995 411.006 44.1882C410.912 47.9288 410.735 51.9155 410.475 56.1482C409.681 54.8273 408.842 53.5224 407.956 52.237L408.018 52.5574C403.734 46.5408 399.126 41.3248 394.193 36.9093C397.078 39.4135 399.795 42.1094 402.346 44.9964C402.396 45.0525 402.446 45.1091 402.496 45.1664C402.5 45.1716 402.505 45.177 402.51 45.1828C402.515 45.1881 402.518 45.1923 402.523 45.1976C403.961 27.4866 403.323 17.159 400.614 14.2153Z" fill="#000072"/>
</g>
</g>
<g opacity="0.649994">
<g opacity="0.649994">
<path opacity="0.649994" fill-rule="evenodd" clip-rule="evenodd" d="M375.932 24.8711C374.731 24.3242 373.514 23.8139 372.283 23.3396C390.329 0.0582371 402.079 -4.5845 407.536 9.39387C401.724 -0.435537 391.19 4.72334 375.934 24.8705L375.932 24.8711Z" fill="white"/>
</g>
</g>
<path fill-rule="evenodd" clip-rule="evenodd" d="M402.516 45.1992C397.341 39.3048 391.475 34.2032 384.918 29.895C399.616 3.54417 405.483 8.64569 402.516 45.1992Z" fill="#000072"/>
<path d="M387.043 29.4333C392.149 32.9052 396.877 36.9004 401.15 41.3513C401.706 33.1731 401.76 26.7524 401.307 22.2304C400.635 15.5191 399.064 14.923 398.887 14.8772C398.561 14.7939 395.522 14.5128 387.043 29.4333ZM403.856 49.1445L401.233 46.1568C396.175 40.3963 390.364 35.342 383.96 31.1346L382.797 30.3705L383.45 29.2002C390.789 16.0422 395.671 10.8804 399.784 11.9469C403.218 12.8374 406.425 17.4978 404.167 45.3132L403.856 49.1445Z" fill="#000072"/>
<path d="M298.135 3.81704C297.47 3.81704 296.884 3.91608 296.367 4.08366C291.404 5.69086 286.008 15.4373 287.783 52.0604C297.515 38.5475 309.018 28.949 322.05 23.4728C309.629 7.7775 302.333 3.81704 298.135 3.81704ZM285.047 61.9141L284.745 57.0077C282.59 21.9642 285.934 4.23464 295.269 1.21163C302.583 -1.15613 312.614 6.0439 325.934 23.2274L327.138 24.7798L325.227 25.516C310.782 31.0807 298.194 41.9123 287.81 57.7098L285.047 61.9141Z" fill="#000072"/>
<path d="M349.308 20.7348C310.295 20.7348 278.879 57.0309 278.879 87.0826C278.879 94.8971 282.737 102.246 290.345 108.925C307.292 123.802 338.213 131.063 348.436 131.064C348.717 131.064 348.98 131.059 349.229 131.048C356.636 130.723 373.7 127.213 388.446 120.429C401.412 114.464 416.868 103.996 416.868 88.0003C416.868 56.8939 387.356 20.7348 349.308 20.7348ZM348.478 134.107C337.511 134.107 305.904 126.789 288.063 111.128C279.775 103.852 275.572 95.7621 275.572 87.0826C275.572 71.4147 283.726 53.9538 297.384 40.3751C311.884 25.9588 330.809 17.6904 349.308 17.6904C367.921 17.6904 385.866 25.9245 399.838 40.8758C412.572 54.5034 420.175 72.12 420.175 88.0003C420.175 101.893 409.714 114.048 389.924 123.153C374.748 130.134 357.083 133.751 349.386 134.089C349.102 134.101 348.798 134.107 348.478 134.107Z" fill="#000072"/>
<g opacity="0.559998">
<g opacity="0.559998">
<path opacity="0.559998" fill-rule="evenodd" clip-rule="evenodd" d="M350.994 80.7869C352.439 81.1378 353.508 81.7773 353.383 82.2161C353.257 82.6543 351.984 82.7257 350.539 82.3748C349.093 82.0244 348.023 81.3844 348.149 80.9455C348.274 80.5073 349.548 80.4359 350.994 80.7869Z" fill="white"/>
</g>
</g>
<path d="M312.75 64.1889C315.421 67.454 318.046 69.9787 320.625 71.763C324.42 74.3881 328.528 74.8476 328.983 71.9565C326.942 71.7413 324.814 70.8676 322.601 69.3374C317.149 65.5645 315.443 63.1354 312.75 64.1889Z" fill="#000072"/>
<path d="M374.814 22.7003C387.846 28.176 399.349 37.7744 409.081 51.2874C410.857 14.6644 405.461 4.91793 400.498 3.31082C396.71 2.08522 389.2 4.52244 374.814 22.7003ZM411.818 61.1406L409.054 56.9366C398.67 41.1389 386.081 30.3076 371.638 24.7435L369.727 24.0073L370.93 22.4549C384.249 5.2725 394.277 -1.93167 401.595 0.438961C410.93 3.46196 414.274 21.1914 412.12 56.2346L411.818 61.1406Z" fill="#000072"/>
</svg>
